<?xml version="1.0" encoding="utf-8"?>
<!-- Generator: Adobe Illustrator 22.0.0, SVG Export Plug-In . SVG Version: 6.00 Build 0)  -->
<svg version="1.1" id="图层_1" xmlns="http://www.w3.org/2000/svg" xmlns:xlink="http://www.w3.org/1999/xlink" x="0px" y="0px"
	 viewBox="0 0 200 200" style="enable-background:new 0 0 200 200;" xml:space="preserve">
<style type="text/css">
	.st0{fill:#717071;}
	.st1{fill:#1586C9;}
	.st2{fill:#E17514;}
</style>
<g>
	<g id="XMLID_1033_">
		<polygon id="XMLID_1034_" class="st0" points="186.8,47.7 106.2,1 106.2,94 127.2,106.4 127.2,37.4 135.2,41.9 135.2,110.9 
			157.8,124.2 157.8,54.8 165.8,59.3 165.8,128.7 186.8,140.7 		"/>
	</g>
	<polygon id="XMLID_1032_" class="st1" points="131,123.4 122,153.5 131.4,147.8 139.7,152.3 106.6,171.3 122.3,118.4 100,105.6 
		19,152.3 69.9,181.6 78.9,151 69,156.9 60.3,152.3 93.4,133.2 77.7,186.2 100,199 181,152.3 	"/>
	<polygon id="XMLID_1031_" class="st2" points="93.8,28.2 93.8,1 13.2,47.7 13.2,140.7 42.5,123.8 42.5,104 93.8,74.2 93.8,48.2 
		42.5,77.9 42.5,57.6 	"/>
</g>
</svg>
