<?xml version="1.0" encoding="UTF-8" standalone="no"?>
<svg width="148px" height="22px" viewBox="0 0 148 22" version="1.1" xmlns="http://www.w3.org/2000/svg" xmlns:xlink="http://www.w3.org/1999/xlink">
    <!-- Generator: Sketch 50.2 (55047) - http://www.bohemiancoding.com/sketch -->
    <title>logo</title>
    <desc>Created with Sketch.</desc>
    <defs></defs>
    <g id="Page-1" stroke="none" stroke-width="1" fill="none" fill-rule="evenodd">
        <g id="首页-copy-4" transform="translate(-360.000000, -40.000000)" fill="#21305E">
            <g id="logo" transform="translate(360.000000, 40.000000)">
                <g id="Group">
                    <polygon id="Fill-1" points="17.724711 21.8910645 21.9668251 21.8910645 21.9668251 0 17.724711 0"></polygon>
                    <polygon id="Fill-2" opacity="0.300000012" points="0 21.8910645 4.24211416 21.8910645 4.24211416 0 0 0"></polygon>
                    <polygon id="Fill-3" opacity="0.300000012" points="8.68858382 21.8910645 12.930698 21.8910645 12.930698 0 8.68858382 0"></polygon>
                    <polygon id="Fill-4" points="0 21.9897097 4.24211416 21.9897097 4.24211416 8.16129032 0 8.16129032"></polygon>
                    <polygon id="Fill-5" points="8.68858382 21.6157097 12.930698 21.6157097 12.930698 13.1290323 8.68858382 13.1290323"></polygon>
                </g>
                <path d="M58.3893239,7.30329032 L60.3983452,7.30329032 L60.3983452,19.9355484 L57.2843972,19.9355484 L57.2843972,9.98906452 L56.5954799,9.98906452 L56.5954799,7.30329032 L58.3893239,7.30329032 Z M94.2639693,16.0031601 L96.9321277,18.7091194 L94.9119102,20.7576032 L92.2287939,18.0366214 C90.6133762,19.2291651 88.6078882,19.9354065 86.4352539,19.9354065 C81.0887102,19.9354065 76.7543745,15.6585355 76.7543745,10.3824387 C76.7543745,5.10634194 81.0887102,0.829470968 86.4352539,0.829470968 C91.7817976,0.829470968 96.1161333,5.10634194 96.1161333,10.3824387 C96.1161333,12.4834549 95.4288183,14.4260194 94.2639693,16.0031601 Z M39.4568,14.7772935 C39.4568,15.5142935 39.3399395,16.2246806 39.1065683,16.9091645 C38.8728473,17.5932935 38.5268142,18.1943903 38.068469,18.7117452 C37.6101239,19.2294548 37.0345683,19.6417774 36.342852,19.9487129 C35.6507858,20.2552935 34.8460577,20.4092935 33.9293674,20.4092935 C32.4763083,20.4092935 31.2867102,20.0668742 30.3616227,19.3827452 C29.4358355,18.6986161 28.8259915,17.6110355 28.5320908,16.1196484 L31.5939064,15.3826484 C31.6978213,15.997229 31.9444879,16.487971 32.3339064,16.8562935 C32.7229749,17.2246161 33.2030128,17.4091323 33.7740199,17.4091323 C34.7082043,17.4091323 35.3435896,17.0890677 35.6812255,16.448229 C36.0185116,15.8081 36.1871546,14.9266806 36.1871546,13.8036161 L36.1871546,1.30300323 L39.4568,1.30300323 L39.4568,14.7772935 Z M41.650174,13.6193839 C41.650174,12.6194484 41.8268643,11.7114161 42.1816444,10.8956419 C42.5364246,10.0798677 43.0164624,9.38260968 43.6217579,8.8035129 C44.2274033,8.22441613 44.9457106,7.77696452 45.7759801,7.4615129 C46.6062496,7.14535161 47.4883017,6.98780323 48.4224861,6.98780323 C49.3566704,6.98780323 50.2390723,7.14535161 51.0693418,7.4615129 C51.8999612,7.77696452 52.6172189,8.22441613 53.2232142,8.8035129 C53.8285097,9.38260968 54.3085475,10.0798677 54.6633277,10.8956419 C55.0177579,11.7114161 55.195148,12.6194484 55.195148,13.6193839 C55.195148,14.6193194 55.0177579,15.5273516 54.6633277,16.3431258 C54.3085475,17.1589 53.8285097,17.8565129 53.2232142,18.4352548 C52.6172189,19.0143516 51.8999612,19.4618032 51.0693418,19.7776097 C50.2390723,20.0934161 49.3566704,20.2513194 48.4224861,20.2513194 C47.4883017,20.2513194 46.6062496,20.0934161 45.7759801,19.7776097 C44.9457106,19.4618032 44.2274033,19.0143516 43.6217579,18.4352548 C43.0164624,17.8565129 42.5364246,17.1589 42.1816444,16.3431258 C41.8268643,15.5273516 41.650174,14.6193194 41.650174,13.6193839 Z M44.7637721,13.6193839 C44.7637721,14.1108355 44.8456444,14.5845452 45.0104388,15.0405129 C45.1745333,15.4971903 45.4166515,15.9002871 45.7367934,16.2512226 C46.0565853,16.6021581 46.4414553,16.8828355 46.8917532,17.0932548 C47.3413513,17.3036742 47.8518288,17.4090613 48.4224861,17.4090613 C48.9934931,17.4090613 49.5036208,17.3036742 49.9535688,17.0932548 C50.4031669,16.8828355 50.7880369,16.6021581 51.1085286,16.2512226 C51.4283206,15.9002871 51.6700889,15.4971903 51.8348832,15.0405129 C51.9993277,14.5845452 52.0815499,14.1108355 52.0815499,13.6193839 C52.0815499,13.1282871 51.9993277,12.6545774 51.8348832,12.1982548 C51.6700889,11.7422871 51.4283206,11.3388355 51.1085286,10.9875452 C50.7880369,10.6369645 50.4031669,10.3562871 49.9535688,10.1455129 C49.5036208,9.93509355 48.9934931,9.82970645 48.4224861,9.82970645 C47.8518288,9.82970645 47.3413513,9.93509355 46.8917532,10.1455129 C46.4414553,10.3562871 46.0565853,10.6369645 45.7367934,10.9875452 C45.4166515,11.3388355 45.1745333,11.7422871 45.0104388,12.1982548 C44.8456444,12.6545774 44.7637721,13.1282871 44.7637721,13.6193839 Z M56.8432312,3.01371613 C56.8432312,2.50487742 57.0290184,2.06203871 57.4012927,1.68484516 C57.7728671,1.30765161 58.2445078,1.11887742 58.8155149,1.11887742 C59.386522,1.11887742 59.8665598,1.29878065 60.2556284,1.6585871 C60.6446969,2.01803871 60.8395811,2.47010323 60.8395811,3.01371613 C60.8395811,3.55768387 60.6446969,4.00974839 60.2556284,4.36884516 C59.8665598,4.72865161 59.386522,4.90855484 58.8155149,4.90855484 C58.2445078,4.90855484 57.7728671,4.72013548 57.4012927,4.34294194 C57.0290184,3.96574839 56.8432312,3.52290968 56.8432312,3.01371613 Z M63.1099641,7.30332581 L66.0682147,7.30332581 L66.0682147,9.32980968 L66.120347,9.32980968 C66.4138979,8.69819677 66.8638459,8.14997097 67.4694913,7.68513226 C68.0747868,7.22029355 68.8966591,6.98751935 69.9347584,6.98751935 C70.7650279,6.98751935 71.4700397,7.12803548 72.0497939,7.4087129 C72.6288482,7.68939032 73.1004889,8.0577129 73.4640161,8.51403548 C73.8271934,8.97035806 74.0864558,9.49658387 74.2421532,10.0930677 C74.3982005,10.6895516 74.4755243,11.3126484 74.4755243,11.9612935 L74.4755243,19.9355839 L71.3619262,19.9355839 L71.3619262,13.5403258 C71.3619262,13.1897452 71.3444322,12.7994226 71.3101437,12.3693581 C71.2751556,11.9396484 71.1841863,11.5361968 71.0375858,11.1586484 C70.8902856,10.7818097 70.661113,10.4660032 70.3497182,10.211229 C70.0386733,9.95716452 69.6146165,9.82977742 69.0785976,9.82977742 C68.559373,9.82977742 68.1223707,9.91777742 67.7679404,10.0930677 C67.4131603,10.2683581 67.1192596,10.5053903 66.8855385,10.8034548 C66.6521674,11.102229 66.4835243,11.4439387 66.3796095,11.8300032 C66.2760444,12.2160677 66.2239121,12.6191645 66.2239121,13.0403581 L66.2239121,19.9355839 L63.1099641,19.9355839 L63.1099641,7.30332581 Z M109.740915,19.9354419 L106.783015,19.9354419 L106.783015,17.9089581 L106.730882,17.9089581 C106.436632,18.540571 105.987034,19.0891516 105.381738,19.5539903 C104.776093,20.0184742 103.95457,20.2512484 102.916471,20.2512484 C102.086201,20.2512484 101.38084,20.1149903 100.801435,19.8431839 C100.221681,19.5717323 99.7503905,19.2030548 99.3872132,18.7378613 C99.0240359,18.2733774 98.7644236,17.7425387 98.6090761,17.1460548 C98.4530288,16.549571 98.3753551,15.926829 98.3753551,15.2774742 L98.3753551,7.30318387 L101.489303,7.30318387 L101.489303,13.6984419 C101.489303,14.0497323 101.506447,14.4397 101.541086,14.8694097 C101.575724,15.2994742 101.666343,15.7029258 101.813643,16.0801194 C101.960594,16.4576677 102.185218,16.7731194 102.488216,17.0275387 C102.790863,17.2819581 103.218769,17.4089903 103.772632,17.4089903 C104.291856,17.4089903 104.728509,17.3213452 105.082939,17.1460548 C105.437369,16.9707645 105.73197,16.7337323 105.965341,16.4353129 C106.199062,16.1372484 106.367705,15.7951839 106.47127,15.4091194 C106.575185,15.0234097 106.627317,14.6196032 106.627317,14.1984097 L106.627317,7.30318387 L109.740915,7.30318387 L109.740915,19.9354419 Z M120.535818,18.1985774 L120.457795,18.1985774 C120.007847,18.9181903 119.43684,19.4398032 118.745123,19.7644806 C118.053057,20.0888032 117.292064,20.2513194 116.461795,20.2513194 C115.890788,20.2513194 115.332726,20.1721903 114.78796,20.0142871 C114.242844,19.8563839 113.758258,19.6197065 113.334551,19.3039 C112.910844,18.9880935 112.56936,18.5935129 112.309748,18.1198032 C112.050485,17.6457387 111.920329,17.0932548 111.920329,16.4616419 C111.920329,15.7775129 112.041388,15.1941581 112.283856,14.7115774 C112.525974,14.2293516 112.850315,13.8259 113.256878,13.5008677 C113.66309,13.1765452 114.134731,12.9178677 114.6711,12.7248355 C115.207119,12.5318032 115.76518,12.387029 116.344934,12.2905129 C116.923989,12.1939968 117.507941,12.1326097 118.096443,12.1059968 C118.684594,12.0800935 119.238457,12.0669645 119.757331,12.0669645 L120.535818,12.0669645 L120.535818,11.7245452 C120.535818,10.935029 120.267109,10.3431581 119.73144,9.94822258 C119.194722,9.5532871 118.511402,9.35599677 117.681133,9.35599677 C117.023355,9.35599677 116.410012,9.4745129 115.839005,9.71119032 C115.267998,9.94822258 114.775015,10.2686419 114.359705,10.6717387 L112.724707,9.01393226 C113.416774,8.29467419 114.22535,7.77696452 115.151138,7.4615129 C116.076225,7.14535161 117.032452,6.98780323 118.018419,6.98780323 C118.900821,6.98780323 119.64467,7.08857742 120.250315,7.29012581 C120.85561,7.49202903 121.356991,7.75070645 121.755157,8.0665129 C122.153322,8.38231935 122.460168,8.74673871 122.676395,9.15870645 C122.892622,9.57102903 123.04832,9.98760968 123.143487,10.4088032 C123.238305,10.8299968 123.294636,11.2377065 123.31213,11.6322871 C123.329275,12.0272226 123.338022,12.3739 123.338022,12.6719645 L123.338022,19.9355129 L120.535818,19.9355129 L120.535818,18.1985774 Z M120.35388,14.2772548 L119.705199,14.2772548 C119.272745,14.2772548 118.788159,14.2949968 118.25214,14.329771 C117.715771,14.3652548 117.209842,14.4482871 116.734003,14.5799323 C116.258164,14.7115774 115.856149,14.9049645 115.527261,15.159029 C115.198722,15.4134484 115.034627,15.7686419 115.034627,16.2246097 C115.034627,16.5233839 115.099005,16.7731903 115.229161,16.9747387 C115.358967,17.1766419 115.527261,17.3476742 115.73509,17.4878355 C115.94292,17.6287065 116.176291,17.7294806 116.435904,17.7905129 C116.695166,17.8522548 116.954428,17.882771 117.214041,17.882771 C118.286778,17.882771 119.078211,17.6240935 119.588339,17.1063839 C120.098816,16.589029 120.35388,15.8825452 120.35388,14.9876419 L120.35388,14.2772548 Z M125.816304,7.30332581 L128.774555,7.30332581 L128.774555,9.32980968 L128.826687,9.32980968 C129.120238,8.69819677 129.570186,8.14997097 130.175832,7.68513226 C130.781127,7.22029355 131.603,6.98751935 132.641099,6.98751935 C133.471368,6.98751935 134.17638,7.12803548 134.756134,7.4087129 C135.335189,7.68939032 135.806829,8.0577129 136.170357,8.51403548 C136.533534,8.97035806 136.792796,9.49658387 136.948494,10.0930677 C137.104541,10.6895516 137.181865,11.3126484 137.181865,11.9612935 L137.181865,19.9355839 L134.068267,19.9355839 L134.068267,13.5403258 C134.068267,13.1897452 134.050773,12.7994226 134.016484,12.3693581 C133.981496,11.9396484 133.890527,11.5361968 133.743926,11.1586484 C133.596626,10.7818097 133.367453,10.4660032 133.056059,10.211229 C132.745014,9.95716452 132.320957,9.82977742 131.784938,9.82977742 C131.265713,9.82977742 130.828711,9.91777742 130.474281,10.0930677 C130.119501,10.2683581 129.8256,10.5053903 129.591879,10.8034548 C129.358508,11.102229 129.189865,11.4439387 129.08595,11.8300032 C128.982385,12.2160677 128.930252,12.6191645 128.930252,13.0403581 L128.930252,19.9355839 L125.816304,19.9355839 L125.816304,7.30332581 Z M138.738699,9.98764516 L138.738699,7.30329032 L141.307881,7.30329032 L141.307881,3.64525806 L144.421479,3.64525806 L144.421479,7.30329032 L147.846822,7.30329032 L147.846822,9.98764516 L144.421479,9.98764516 L144.421479,15.5142581 C144.421479,16.145871 144.538339,16.6458387 144.772061,17.0141613 C145.005432,17.3828387 145.467975,17.567 146.160391,17.567 C146.436798,17.567 146.739446,17.5364839 147.068685,17.4747419 C147.396874,17.4137097 147.656486,17.3129355 147.846822,17.1720645 L147.846822,19.8301613 C147.518283,19.9880645 147.115919,20.0973548 146.640429,20.1590968 C146.16459,20.2204839 145.745082,20.2513548 145.381555,20.2513548 C144.551285,20.2513548 143.872514,20.1590968 143.344893,19.9749355 C142.816921,19.7907742 142.401961,19.5100968 142.098964,19.1325484 C141.796316,18.7557097 141.588836,18.2866129 141.476524,17.7249032 C141.363862,17.1635484 141.307881,16.5141935 141.307881,15.7771935 L141.307881,9.98764516 L138.738699,9.98764516 Z M80.1692208,10.3824387 C80.1692208,14.0014387 82.974573,16.9352452 86.4352539,16.9352452 C89.8959348,16.9352452 92.701287,14.0014387 92.701287,10.3824387 C92.701287,6.76343871 89.8959348,3.82963226 86.4352539,3.82963226 C82.974573,3.82963226 80.1692208,6.76343871 80.1692208,10.3824387 Z" id="Combined-Shape"></path>
            </g>
        </g>
    </g>
</svg>